<svg width="7" height="4" viewBox="0 0 7 4" fill="none" xmlns="http://www.w3.org/2000/svg">
<path fillRule="evenodd" clipRule="evenodd" d="M0.204703 0.203117C0.335815 0.0783871 0.513615 0.0083178 0.699006 0.0083178C0.884397 0.0083178 1.0622 0.0783871 1.19331 0.203117L3.49563 2.39404L5.79795 0.203117C5.86244 0.139571 5.93959 0.088885 6.02489 0.0540159C6.11019 0.0191467 6.20194 0.000792787 6.29477 2.51208e-05C6.3876 -0.000742545 6.47967 0.0160912 6.56559 0.0495445C6.65151 0.0829978 6.72958 0.1324 6.79522 0.19487C6.86087 0.257339 6.91278 0.331624 6.94794 0.413391C6.98309 0.495157 7.00078 0.582767 6.99997 0.671109C6.99917 0.759451 6.97988 0.846755 6.94324 0.927928C6.9066 1.0091 6.85333 1.08252 6.78656 1.14389L3.98993 3.8052C3.85882 3.92993 3.68102 4 3.49563 4C3.31024 4 3.13244 3.92993 3.00133 3.8052L0.204703 1.14389C0.073632 1.01912 0 0.849925 0 0.673503C0 0.497082 0.073632 0.327884 0.204703 0.203117Z" fill="black"/>
</svg>
