<svg width="17" height="18" viewBox="0 0 17 18" fill="none" xmlns="http://www.w3.org/2000/svg">
<path d="M7.07872 2.90273H2.37964C1.88113 2.90273 1.40303 3.10077 1.05053 3.45327C0.698032 3.80577 0.5 4.28386 0.5 4.78237V15.1204C0.5 15.6189 0.698032 16.097 1.05053 16.4495C1.40303 16.802 1.88113 17 2.37964 17H12.7176C13.2161 17 13.6942 16.802 14.0467 16.4495C14.3992 16.097 14.5973 15.6189 14.5973 15.1204V10.4213M13.2684 1.57383C13.4418 1.39431 13.6492 1.25111 13.8785 1.1526C14.1078 1.05409 14.3545 1.00224 14.604 1.00007C14.8536 0.997902 15.1011 1.04546 15.3321 1.13997C15.5631 1.23448 15.773 1.37405 15.9495 1.55053C16.1259 1.72702 16.2655 1.93688 16.36 2.16788C16.4545 2.39888 16.5021 2.64639 16.4999 2.89597C16.4978 3.14555 16.4459 3.39219 16.3474 3.62151C16.2489 3.85084 16.1057 4.05824 15.9262 4.23164L7.85689 12.3009H5.19909V9.64311L13.2684 1.57383Z" stroke="#d1c8c8" strokeLinecap="round" strokeLinejoin="round"/>
</svg>
