<svg width="17" height="17" viewBox="0 0 17 17" fill="none" xmlns="http://www.w3.org/2000/svg">
<path d="M8.5 2.27778C8.5 1.80628 8.6873 1.3541 9.0207 1.0207C9.3541 0.687301 9.80628 0.5 10.2778 0.5C10.7493 0.5 11.2015 0.687301 11.5349 1.0207C11.8683 1.3541 12.0556 1.80628 12.0556 2.27778V3.16667C12.0556 3.40241 12.1492 3.62851 12.3159 3.79521C12.4826 3.9619 12.7087 4.05556 12.9444 4.05556H15.6111C15.8469 4.05556 16.073 4.14921 16.2397 4.31591C16.4064 4.4826 16.5 4.7087 16.5 4.94444V7.61111C16.5 7.84686 16.4064 8.07295 16.2397 8.23965C16.073 8.40635 15.8469 8.5 15.6111 8.5H14.7222C14.2507 8.5 13.7985 8.6873 13.4651 9.0207C13.1317 9.3541 12.9444 9.80628 12.9444 10.2778C12.9444 10.7493 13.1317 11.2015 13.4651 11.5349C13.7985 11.8683 14.2507 12.0556 14.7222 12.0556H15.6111C15.8469 12.0556 16.073 12.1492 16.2397 12.3159C16.4064 12.4826 16.5 12.7087 16.5 12.9444V15.6111C16.5 15.8469 16.4064 16.073 16.2397 16.2397C16.073 16.4064 15.8469 16.5 15.6111 16.5H12.9444C12.7087 16.5 12.4826 16.4064 12.3159 16.2397C12.1492 16.073 12.0556 15.8469 12.0556 15.6111V14.7222C12.0556 14.2507 11.8683 13.7985 11.5349 13.4651C11.2015 13.1317 10.7493 12.9444 10.2778 12.9444C9.80628 12.9444 9.3541 13.1317 9.0207 13.4651C8.6873 13.7985 8.5 14.2507 8.5 14.7222V15.6111C8.5 15.8469 8.40635 16.073 8.23965 16.2397C8.07295 16.4064 7.84686 16.5 7.61111 16.5H4.94444C4.7087 16.5 4.4826 16.4064 4.31591 16.2397C4.14921 16.073 4.05556 15.8469 4.05556 15.6111V12.9444C4.05556 12.7087 3.9619 12.4826 3.79521 12.3159C3.62851 12.1492 3.40241 12.0556 3.16667 12.0556H2.27778C1.80628 12.0556 1.3541 11.8683 1.0207 11.5349C0.687301 11.2015 0.5 10.7493 0.5 10.2778C0.5 9.80628 0.687301 9.3541 1.0207 9.0207C1.3541 8.6873 1.80628 8.5 2.27778 8.5H3.16667C3.40241 8.5 3.62851 8.40635 3.79521 8.23965C3.9619 8.07295 4.05556 7.84686 4.05556 7.61111V4.94444C4.05556 4.7087 4.14921 4.4826 4.31591 4.31591C4.4826 4.14921 4.7087 4.05556 4.94444 4.05556H7.61111C7.84686 4.05556 8.07295 3.9619 8.23965 3.79521C8.40635 3.62851 8.5 3.40241 8.5 3.16667V2.27778Z" stroke="black" strokeLinecap="round" strokeLinejoin="round"/>
</svg>
