<svg width="15" height="15" viewBox="0 0 15 15" fill="none" xmlns="http://www.w3.org/2000/svg">
<path d="M1 0.501645V4.87613H1.47287M1.47287 4.87613C2.01225 3.43966 2.97899 2.23649 4.22159 1.45516C5.46418 0.673837 6.9124 0.358524 8.33929 0.558637C9.76617 0.758749 11.0911 1.46298 12.1064 2.56096C13.1217 3.65894 13.7699 5.08861 13.9496 6.62593M1.47287 4.87613H5.0625M14 14.5V10.1255H13.5279M13.5279 10.1255C12.9878 11.5611 12.0208 12.7634 10.7783 13.544C9.53583 14.3246 8.08804 14.6396 6.66158 14.4395C5.23512 14.2395 3.91054 13.5358 2.89518 12.4385C1.87983 11.3413 1.23104 9.91243 1.05037 8.37572M13.5279 10.1255H9.9375" stroke="black" strokeLinecap="round" strokeLinejoin="round"/>
</svg>
