<svg width="13" height="15" viewBox="0 0 13 15" fill="none" xmlns="http://www.w3.org/2000/svg">
<path d="M9.64286 3.88889C9.64286 4.65507 9.31174 5.38987 8.72234 5.93164C8.13294 6.47341 7.33354 6.77778 6.5 6.77778C5.66646 6.77778 4.86706 6.47341 4.27766 5.93164C3.68826 5.38987 3.35714 4.65507 3.35714 3.88889C3.35714 3.12271 3.68826 2.38791 4.27766 1.84614C4.86706 1.30436 5.66646 1 6.5 1C7.33354 1 8.13294 1.30436 8.72234 1.84614C9.31174 2.38791 9.64286 3.12271 9.64286 3.88889ZM6.5 8.94444C5.04131 8.94444 3.64236 9.47708 2.61091 10.4252C1.57946 11.3733 1 12.6592 1 14H12C12 12.6592 11.4205 11.3733 10.3891 10.4252C9.35764 9.47708 7.95869 8.94444 6.5 8.94444Z" stroke="black" strokeLinecap="round" strokeLinejoin="round"/>
</svg>
